<svg version="1.0" xmlns="http://www.w3.org/2000/svg"
 viewBox="0 0 302.000000 300.000000"
 preserveAspectRatio="xMidYMid meet">

<g transform="translate(0.000000,300.000000) scale(0.100000,-0.100000)"
fill="#000000" stroke="none">
<path d="M1392 2204 c-106 -28 -211 -123 -246 -222 -36 -102 -28 -226 21 -309
125 -215 410 -255 582 -82 200 200 108 543 -165 614 -71 18 -122 18 -192 -1z
m201 -84 c107 -40 187 -156 187 -270 0 -153 -137 -290 -290 -290 -107 0 -218
72 -264 170 -30 64 -29 189 1 245 73 135 227 197 366 145z"/>
<path d="M1140 1374 c-45 -19 -97 -69 -120 -115 -32 -61 -62 -198 -58 -261 5
-73 43 -132 101 -159 39 -17 70 -19 427 -19 357 0 388 2 427 19 94 43 125 155
84 305 -36 130 -83 197 -163 230 -54 23 -646 23 -698 0z m634 -64 c81 -18 117
-65 151 -198 27 -101 21 -144 -25 -184 l-30 -28 -375 0 c-248 0 -382 4 -398
11 -59 27 -73 109 -38 224 34 114 70 158 144 175 46 11 524 11 571 0z"/>
</g>
</svg>
