<svg width="189" height="80" viewBox="0 0 189 80" fill="none" xmlns="http://www.w3.org/2000/svg">
<g clip-path="url(#clip0_413_4151)">
<circle cx="505.5" cy="433.5" r="433.5" fill="#D9D9D9"/>
<path d="M16.5809 24.8203L23.4529 26.2544L19.6972 48.1652L13.4342 47.6325C13.353 47.6325 12.7439 47.612 12.3684 47.0999C12.0537 46.6696 12.0841 46.2189 12.1044 46.1062C13.1703 39.2226 14.2462 32.3493 15.3324 25.4554C15.4237 25.3427 15.5861 25.1583 15.8602 24.9944C16.1546 24.851 16.4185 24.8203 16.5809 24.8203Z" fill="#0197A0"/>
<path d="M64.6797 27.6325L75.8184 23.3202C75.9714 23.2591 76.2264 23.2081 76.4508 23.3202C76.7364 23.463 76.8486 23.7892 76.8894 23.9523C77.0934 24.6149 78.8988 31.2617 81.3775 40.3857C81.4285 40.559 81.4999 40.9362 81.3775 41.3745C81.1735 42.0678 80.5921 42.394 80.4799 42.4551C77.5728 43.5561 74.6759 44.6673 71.7689 45.7683C71.4527 45.7072 70.9324 45.544 70.4122 45.1363C69.6268 44.5246 69.3412 43.7396 69.2494 43.4236C67.75 38.1735 66.2199 32.903 64.6797 27.6325Z" fill="#019D9E"/>
<path d="M63.0428 28.8166L67.703 44.4765L63.3074 47.2436L51.3008 35.7394C50.6699 35.4252 49.917 35.111 49.0521 34.8475C48.2381 34.5941 47.4851 34.4218 46.8034 34.3204C46.1725 34.8677 45.0329 35.7293 43.3947 36.1955C42.072 36.5706 40.098 37.1483 38.6531 36.0232C37.0964 34.8069 37.2897 32.4858 37.2999 32.1919C38.5412 31.6749 39.9047 31.0364 41.3292 30.2255C42.4281 29.5971 43.4049 28.9788 44.28 28.3504C44.6056 28.0869 44.9413 27.8233 45.2669 27.5497C46.9967 26.8807 50.4155 25.7962 54.7603 26.2016C58.637 26.5563 61.4962 27.9348 63.0428 28.8166Z" fill="#FBC3C2"/>
<path d="M25.5257 27.2188L37.9523 29.788L38.2146 30.142L35.9148 31.2142C35.7938 32.0436 35.6828 33.6317 36.3687 35.3917C36.4898 35.7052 36.9638 36.9393 37.7103 37.6271C39.3745 39.1747 43.1873 38.6285 46.9496 36.211C47.9885 36.5043 49.0173 36.8078 50.0562 37.1011L62.7552 49.492C62.6947 49.7853 62.493 50.4934 61.8676 51.1003C61.091 51.8488 60.1832 51.9601 59.9108 51.9904L52.9713 46.4474C52.6888 46.3564 52.3761 46.417 52.1744 46.6193C51.9222 46.8722 51.8819 47.2768 52.0836 47.6005C54.2422 49.3807 56.4108 51.161 58.5693 52.9311C58.4584 53.2851 58.2768 53.7302 57.9439 54.1753C57.1067 55.3284 55.9266 55.733 55.4525 55.8746C53.1528 54.064 50.8329 52.2534 48.5332 50.4428C48.1902 50.2506 47.7666 50.3316 47.5548 50.6148C47.3631 50.8676 47.3631 51.2419 47.5548 51.5049C49.7435 53.2851 51.9424 55.0654 54.1211 56.8355C53.8992 57.2098 53.3142 58.0695 52.1643 58.6157C51.2767 59.0406 50.4496 59.0709 50.0361 59.0507C48.0793 57.4728 46.1325 55.8948 44.1758 54.3371C43.8631 54.1348 43.4495 54.1651 43.1974 54.4281C42.9149 54.7114 42.9149 55.1969 43.1974 55.5003C44.9121 56.8861 46.6369 58.2921 48.3415 59.6778C48.0793 60.0217 47.7968 60.2847 47.5447 60.4769C45.7392 61.8525 43.3587 61.2456 42.8443 61.104C43.1671 57.9077 42.3904 55.2677 40.7161 54.5192C40.4336 54.3978 40.0907 54.2966 39.6469 54.2865C39.7377 53.184 39.2737 52.132 38.4062 51.5757C37.569 51.0497 36.6915 51.1711 36.4494 51.2217C36.4293 51.1003 36.2477 49.1177 34.5834 48.2883C33.6655 47.8331 32.7981 47.9646 32.4551 48.0253C32.0315 46.7003 31.0228 45.6888 29.7923 45.4561C28.8542 45.2639 28.0977 45.5674 27.7548 45.7191C26.4839 46.7913 25.2029 47.8534 23.932 48.9155L21.8037 48.7435L25.5257 27.2188Z" fill="#FBC3C2"/>
<path d="M25.7432 49.4603L28.6552 46.813C28.8987 46.7609 29.0934 46.7817 29.259 46.813C30.5348 47.0527 31.09 48.7411 31.1484 48.9183C30.0089 50.0752 28.8694 51.253 27.7202 52.4099C27.3891 52.2535 26.4736 51.722 26.0061 50.5755C25.8308 50.1482 25.7724 49.7625 25.7432 49.4603Z" fill="#FBC3C2"/>
<path d="M33.1393 49.4776L28.4004 53.6921C28.4004 53.885 28.4532 54.5349 28.9492 55.1138C29.498 55.7536 30.2474 55.8958 30.4268 55.9161C32.01 54.4943 33.5826 53.0523 35.1657 51.6203C35.2818 51.3055 35.2818 51.0516 35.2607 50.8993C35.1657 50.1681 34.4586 49.5994 33.7831 49.4776C33.5087 49.4369 33.2765 49.4674 33.1393 49.4776Z" fill="#FBC3C2"/>
<path d="M33.975 59.0533L38.0677 54.842C38.2078 54.2257 38.0077 53.5888 37.5574 53.2088C36.957 52.7055 36.2165 52.9109 36.1564 52.9212C34.7655 54.2668 33.3746 55.6123 31.9736 56.9579C31.9936 57.1634 32.0837 57.7796 32.574 58.324C33.1144 58.9301 33.7948 59.0431 33.975 59.0533Z" fill="#FBC3C2"/>
<path d="M35.4551 59.8208C36.719 58.5317 37.993 57.2323 39.2569 55.9534C39.5198 55.892 39.7423 55.9227 39.8939 55.9534C40.6219 56.1273 41.2084 56.9151 41.3904 57.9383C41.4207 58.8386 41.4713 59.739 41.5016 60.6393C40.8039 61.7136 39.5501 62.307 38.3065 62.174C36.9819 62.0103 35.8798 61.0997 35.4551 59.8208Z" fill="#FBC3C2"/>
<path d="M99.1083 50.139H108.196V53.71H99.1083V62.0606H94.5459V41.8438H109.158V45.4147H99.1083V50.139Z" fill="#F48388"/>
<path d="M116.03 42.7301C116.03 44.1695 115.04 45.0738 113.584 45.0738C112.127 45.0738 111.165 44.1603 111.165 42.7301C111.165 41.3183 112.127 40.4141 113.584 40.4141C115.04 40.4141 116.03 41.3183 116.03 42.7301ZM111.33 62.0703V46.4394H115.892V62.0611H111.33V62.0703Z" fill="#F48388"/>
<path d="M134.453 53.2484V62.0696H129.89V53.9404C129.89 53.3591 129.89 52.5563 129.835 51.7812C129.725 50.2034 128.846 49.2068 127.069 49.2068C125.264 49.2068 123.935 50.84 123.935 54.8447V62.088H119.373V46.4387H123.935V48.9023C124.009 48.6163 124.164 48.1642 124.503 47.7028C124.742 47.3798 125.016 47.1584 125.209 47.02C125.447 46.8631 125.804 46.6509 126.244 46.4663C127.005 46.1526 127.838 46.0234 128.828 46.0234C132.089 46.0234 133.986 47.6013 134.324 50.3326C134.425 51.1353 134.453 51.975 134.453 53.2484Z" fill="#F48388"/>
<path d="M153.344 62.0701H148.782V59.7264C148.736 59.9386 148.653 60.3077 148.397 60.6952C148.131 61.092 147.801 61.3319 147.618 61.4519C146.995 61.8117 145.557 62.4761 143.633 62.4761C139.354 62.4761 136.762 59.1912 136.762 54.5683C136.762 48.9766 140.17 46.0424 144.155 46.0424C145.438 46.0424 146.977 46.3653 147.755 46.8636C147.929 46.9743 148.14 47.1773 148.351 47.4634C148.644 47.8786 148.745 48.2754 148.791 48.5153C148.791 45.8578 148.791 43.1912 148.791 40.543H153.353L153.344 62.0701ZM148.782 54.4392V53.7102C148.782 50.37 146.949 49.1981 145.236 49.1981C143.019 49.1981 141.452 50.8959 141.452 54.2915C141.452 57.3642 142.937 59.3019 145.099 59.3019C147.16 59.3111 148.782 58.0286 148.782 54.4392Z" fill="#F48388"/>
<path d="M171.3 55.4562H160.425C160.691 58.4458 161.965 59.3224 163.687 59.3224C165.281 59.3224 166.371 58.4365 166.628 56.9786H171.135C170.283 60.5773 167.379 62.4873 163.586 62.4873C159.253 62.4873 155.845 59.8299 155.845 54.3027C155.845 49.6061 158.95 46.0352 163.888 46.0352C168.836 46.0352 171.392 49.8183 171.392 53.9798C171.392 54.3858 171.364 54.8841 171.3 55.4562ZM160.535 52.5496H166.655C166.39 50.3627 165.373 49.2093 163.687 49.2093C162.047 49.2093 160.92 50.2335 160.535 52.5496Z" fill="#F48388"/>
<path d="M183.64 46.3039C183.64 47.5035 183.64 48.6846 183.64 49.8749C180.04 49.6442 178.482 51.1113 178.482 55.5404V62.0733H173.92V46.4424H178.482V49.432C178.592 49.0167 178.794 48.4908 179.142 47.9556C179.316 47.688 179.481 47.4574 179.655 47.2728C179.976 46.9129 180.315 46.7192 180.534 46.6177C180.974 46.4054 181.341 46.3778 181.909 46.3039C182.358 46.2578 182.742 46.2578 182.953 46.2578C183.228 46.2763 183.466 46.2855 183.64 46.3039Z" fill="#F48388"/>
<path d="M110.258 23.9534C110.258 27.7919 107.702 29.8773 104.788 30.2279C103.771 30.3386 102.984 30.3663 101.793 30.3663H99.1083V37.7481H94.5459V17.5312H101.793C102.984 17.5312 103.771 17.5589 104.788 17.6697C107.784 18.0295 110.258 20.1056 110.258 23.9534ZM105.494 23.9534C105.494 22.2187 104.587 21.379 103.222 21.1945C102.809 21.1391 102.26 21.1391 101.628 21.1391H99.1266V26.7769H101.628C102.26 26.7769 102.819 26.7769 103.222 26.7216C104.596 26.5278 105.494 25.6697 105.494 23.9534Z" fill="#019D9E"/>
<path d="M120.94 35.4595C120.958 35.6994 120.958 36.4376 120.445 36.9359C120.372 36.9912 120.308 37.065 120.207 37.1204C119.602 37.5079 118.219 38.2553 116.396 38.1631C115.883 38.1354 113.327 38.0062 112.072 36.0131C111.65 35.3488 111.412 34.5368 111.412 33.5771C111.412 30.1723 114.408 28.1884 119.877 28.1884H120.867V27.9209C120.867 27.5056 120.867 27.0996 120.812 26.5645C120.729 25.6233 120.024 24.8666 118.668 24.8666C117.239 24.8666 116.451 25.7525 116.341 27.3026H111.971C112.053 23.7317 115.049 21.7109 118.842 21.7109C123.432 21.7109 125.099 23.7317 125.328 26.5183C125.383 27.2473 125.411 28.1239 125.411 29.0373V33.7894C125.411 34.952 125.466 36.0224 125.704 37.7478H121.233L120.94 35.4595ZM120.885 32.0639V30.9289C118.063 30.6982 116.112 31.3995 116.112 33.2173C116.112 34.3799 116.964 35.0074 118.201 35.0074C119.584 34.9889 120.885 33.9924 120.885 32.0639Z" fill="#019D9E"/>
<path d="M145.95 31.7527C145.95 32.2786 145.95 32.8046 145.978 33.2198C146.088 34.77 146.61 35.1298 148.946 34.9822V37.9072C148.012 38.0456 147.114 38.1379 146.124 38.1379C142.716 38.1379 141.617 37.0306 141.434 34.733C141.379 33.9395 141.379 33.2382 141.379 32.3524V25.1736H139.006V22.2394H141.37V18.3086H145.932V22.2394H149.221V25.1736H145.932V31.7434H145.95V31.7527Z" fill="#019D9E"/>
<path d="M137.769 21.9875C137.769 23.1871 137.769 24.3682 137.769 25.5585C134.169 25.3278 132.611 26.7949 132.611 31.224V37.7569H128.049V22.126H132.63V25.1156C132.739 24.7003 132.941 24.1744 133.289 23.6392C133.463 23.3716 133.628 23.1409 133.802 22.9564C134.123 22.5965 134.462 22.4028 134.682 22.3013C135.121 22.089 135.488 22.0614 136.056 21.9875C136.505 21.9414 136.89 21.9414 137.1 21.9414C137.357 21.9599 137.595 21.9691 137.769 21.9875Z" fill="#019D9E"/>
</g>
<defs>
<clipPath id="clip0_413_4151">
<rect width="189" height="80" fill="white"/>
</clipPath>
</defs>
</svg>
